<?xml version="1.0" encoding="UTF-8"?>
<svg xmlns="http://www.w3.org/2000/svg" viewBox="0 0 104 28" width="104" height="28" role="img" aria-label="Tailwind">
  <title>Tailwind</title>
  <rect x="0.6" y="0.6" width="102.8" height="26.8" rx="6"
        fill="#6E7681" fill-opacity="0.08" stroke="#6E7681" stroke-opacity="0.4"/>
  <g transform="translate(11 7.0) scale(0.5833333333333334)" fill="#6E7681"><path d="M12.001,4.8c-3.2,0-5.2,1.6-6,4.8c1.2-1.6,2.6-2.2,4.2-1.8c0.913,0.228,1.565,0.89,2.288,1.624 C13.666,10.618,15.027,12,18.001,12c3.2,0,5.2-1.6,6-4.8c-1.2,1.6-2.6,2.2-4.2,1.8c-0.913-0.228-1.565-0.89-2.288-1.624 C16.337,6.182,14.976,4.8,12.001,4.8z M6.001,12c-3.2,0-5.2,1.6-6,4.8c1.2-1.6,2.6-2.2,4.2-1.8c0.913,0.228,1.565,0.89,2.288,1.624 c1.177,1.194,2.538,2.576,5.512,2.576c3.2,0,5.2-1.6,6-4.8c-1.2,1.6-2.6,2.2-4.2,1.8c-0.913-0.228-1.565-0.89-2.288-1.624 C10.337,13.382,8.976,12,6.001,12z"/></g>
  <text x="33" y="18.4" textLength="59" lengthAdjust="spacing"
        font-family="ui-monospace, SFMono-Regular, Menlo, Consolas, monospace"
        font-size="11" font-weight="500" fill="#6E7681">Tailwind</text>
</svg>
